<mxfile host="app.diagrams.net" modified="2022-11-29T11:43:49.186Z" agent="5.0 (Macintosh; Intel Mac OS X 10_14_6) AppleWebKit/537.36 (KHTML, like Gecko) Chrome/107.0.0.0 Safari/537.36" etag="65lwWnwLyiwRXjiigScw" version="20.6.0" type="github">
  <diagram id="imZJRXk6eTblcUwpeaCT" name="第 1 页">
    <mxGraphModel dx="1186" dy="763" grid="0" gridSize="10" guides="1" tooltips="1" connect="1" arrows="1" fold="1" page="0" pageScale="1" pageWidth="827" pageHeight="1169" math="0" shadow="0">
      <root>
        <mxCell id="0" />
        <mxCell id="1" parent="0" />
        <mxCell id="VBo8rEwudds36ycGH-56-13" value="" style="whiteSpace=wrap;html=1;rounded=0;fillColor=#ffe6cc;strokeColor=#d79b00;" parent="1" vertex="1">
          <mxGeometry x="294" y="335" width="500" height="217" as="geometry" />
        </mxCell>
        <mxCell id="VBo8rEwudds36ycGH-56-9" value="" style="edgeStyle=orthogonalEdgeStyle;rounded=0;orthogonalLoop=1;jettySize=auto;html=1;" parent="1" source="VBo8rEwudds36ycGH-56-4" target="VBo8rEwudds36ycGH-56-8" edge="1">
          <mxGeometry relative="1" as="geometry" />
        </mxCell>
        <mxCell id="VBo8rEwudds36ycGH-56-28" value="从外链获取品类ID" style="edgeLabel;html=1;align=center;verticalAlign=middle;resizable=0;points=[];" parent="VBo8rEwudds36ycGH-56-9" vertex="1" connectable="0">
          <mxGeometry x="-0.1667" y="1" relative="1" as="geometry">
            <mxPoint y="1" as="offset" />
          </mxGeometry>
        </mxCell>
        <mxCell id="VBo8rEwudds36ycGH-56-4" value="APP" style="rounded=0;whiteSpace=wrap;html=1;fillColor=#f8cecc;strokeColor=#b85450;" parent="1" vertex="1">
          <mxGeometry x="230" y="97" width="120" height="60" as="geometry" />
        </mxCell>
        <mxCell id="VBo8rEwudds36ycGH-56-6" style="edgeStyle=orthogonalEdgeStyle;rounded=0;orthogonalLoop=1;jettySize=auto;html=1;entryX=0;entryY=0.5;entryDx=0;entryDy=0;" parent="1" source="VBo8rEwudds36ycGH-56-5" target="VBo8rEwudds36ycGH-56-4" edge="1">
          <mxGeometry relative="1" as="geometry" />
        </mxCell>
        <mxCell id="VBo8rEwudds36ycGH-56-7" value="跳转进站内，&lt;br&gt;携带品类ID" style="edgeLabel;html=1;align=center;verticalAlign=middle;resizable=0;points=[];" parent="VBo8rEwudds36ycGH-56-6" vertex="1" connectable="0">
          <mxGeometry x="-0.1167" y="1" relative="1" as="geometry">
            <mxPoint as="offset" />
          </mxGeometry>
        </mxCell>
        <mxCell id="VBo8rEwudds36ycGH-56-5" value="Actor" style="shape=umlActor;verticalLabelPosition=bottom;verticalAlign=top;html=1;outlineConnect=0;" parent="1" vertex="1">
          <mxGeometry x="80" y="97" width="30" height="60" as="geometry" />
        </mxCell>
        <mxCell id="VBo8rEwudds36ycGH-56-26" style="edgeStyle=orthogonalEdgeStyle;rounded=0;orthogonalLoop=1;jettySize=auto;html=1;exitX=0.25;exitY=1;exitDx=0;exitDy=0;entryX=0.5;entryY=0;entryDx=0;entryDy=0;" parent="1" source="VBo8rEwudds36ycGH-56-8" target="VBo8rEwudds36ycGH-56-10" edge="1">
          <mxGeometry relative="1" as="geometry" />
        </mxCell>
        <mxCell id="VBo8rEwudds36ycGH-56-29" value="获取品类tab信息" style="edgeLabel;html=1;align=center;verticalAlign=middle;resizable=0;points=[];" parent="VBo8rEwudds36ycGH-56-26" vertex="1" connectable="0">
          <mxGeometry x="-0.3372" y="-4" relative="1" as="geometry">
            <mxPoint as="offset" />
          </mxGeometry>
        </mxCell>
        <mxCell id="VBo8rEwudds36ycGH-56-8" value="信息流前端" style="rounded=0;whiteSpace=wrap;html=1;fillColor=#dae8fc;strokeColor=#6c8ebf;" parent="1" vertex="1">
          <mxGeometry x="230" y="212" width="120" height="60" as="geometry" />
        </mxCell>
        <mxCell id="VBo8rEwudds36ycGH-56-19" style="edgeStyle=orthogonalEdgeStyle;rounded=0;orthogonalLoop=1;jettySize=auto;html=1;exitX=0.5;exitY=1;exitDx=0;exitDy=0;" parent="1" source="VBo8rEwudds36ycGH-56-10" edge="1">
          <mxGeometry relative="1" as="geometry">
            <mxPoint x="285" y="644" as="targetPoint" />
            <Array as="points">
              <mxPoint x="111" y="599" />
              <mxPoint x="285" y="599" />
            </Array>
          </mxGeometry>
        </mxCell>
        <mxCell id="VBo8rEwudds36ycGH-56-10" value="" style="whiteSpace=wrap;html=1;rounded=0;fillColor=#d5e8d4;strokeColor=#82b366;" parent="1" vertex="1">
          <mxGeometry x="42" y="331" width="138" height="219" as="geometry" />
        </mxCell>
        <mxCell id="VBo8rEwudds36ycGH-56-20" style="edgeStyle=orthogonalEdgeStyle;rounded=0;orthogonalLoop=1;jettySize=auto;html=1;entryX=0.5;entryY=0;entryDx=0;entryDy=0;" parent="1" edge="1">
          <mxGeometry relative="1" as="geometry">
            <mxPoint x="543.5" y="550" as="sourcePoint" />
            <mxPoint x="285" y="643" as="targetPoint" />
            <Array as="points">
              <mxPoint x="543.5" y="599" />
              <mxPoint x="285.5" y="599" />
            </Array>
          </mxGeometry>
        </mxCell>
        <mxCell id="VBo8rEwudds36ycGH-56-15" value="算法" style="rounded=0;whiteSpace=wrap;html=1;fillColor=#f5f5f5;fontColor=#333333;strokeColor=#666666;" parent="1" vertex="1">
          <mxGeometry x="88" y="645" width="395" height="46" as="geometry" />
        </mxCell>
        <mxCell id="VBo8rEwudds36ycGH-56-17" style="edgeStyle=orthogonalEdgeStyle;rounded=0;orthogonalLoop=1;jettySize=auto;html=1;exitX=0.5;exitY=1;exitDx=0;exitDy=0;" parent="1" source="VBo8rEwudds36ycGH-56-8" target="VBo8rEwudds36ycGH-56-8" edge="1">
          <mxGeometry relative="1" as="geometry" />
        </mxCell>
        <mxCell id="VBo8rEwudds36ycGH-56-24" style="edgeStyle=orthogonalEdgeStyle;rounded=0;orthogonalLoop=1;jettySize=auto;html=1;entryX=0.5;entryY=0;entryDx=0;entryDy=0;" parent="1" target="VBo8rEwudds36ycGH-56-13" edge="1">
          <mxGeometry relative="1" as="geometry">
            <mxPoint x="316" y="272" as="sourcePoint" />
            <mxPoint x="503" y="431" as="targetPoint" />
            <Array as="points">
              <mxPoint x="316" y="299" />
              <mxPoint x="544" y="299" />
            </Array>
          </mxGeometry>
        </mxCell>
        <mxCell id="z65RujBb1qOGGIpAkcYI-1" value="&lt;span style=&quot;font-size: 12px;&quot;&gt;获取下对应tab下商品&lt;/span&gt;" style="edgeLabel;html=1;align=center;verticalAlign=middle;resizable=0;points=[];" vertex="1" connectable="0" parent="VBo8rEwudds36ycGH-56-24">
          <mxGeometry x="0.2218" y="4" relative="1" as="geometry">
            <mxPoint as="offset" />
          </mxGeometry>
        </mxCell>
        <mxCell id="VBo8rEwudds36ycGH-56-36" value="" style="edgeStyle=orthogonalEdgeStyle;rounded=0;orthogonalLoop=1;jettySize=auto;html=1;" parent="1" source="VBo8rEwudds36ycGH-56-31" target="VBo8rEwudds36ycGH-56-34" edge="1">
          <mxGeometry relative="1" as="geometry" />
        </mxCell>
        <mxCell id="VBo8rEwudds36ycGH-56-31" value="展示服务" style="rounded=0;whiteSpace=wrap;html=1;" parent="1" vertex="1">
          <mxGeometry x="54" y="354" width="112" height="32" as="geometry" />
        </mxCell>
        <mxCell id="VBo8rEwudds36ycGH-56-33" value="聚量引擎" style="rounded=0;whiteSpace=wrap;html=1;" parent="1" vertex="1">
          <mxGeometry x="54" y="416" width="112" height="32" as="geometry" />
        </mxCell>
        <mxCell id="VBo8rEwudds36ycGH-56-34" value="品类tab召回" style="rounded=0;whiteSpace=wrap;html=1;" parent="1" vertex="1">
          <mxGeometry x="54" y="486" width="112" height="32" as="geometry" />
        </mxCell>
        <mxCell id="VBo8rEwudds36ycGH-56-40" value="" style="edgeStyle=orthogonalEdgeStyle;rounded=0;orthogonalLoop=1;jettySize=auto;html=1;" parent="1" source="VBo8rEwudds36ycGH-56-38" target="VBo8rEwudds36ycGH-56-39" edge="1">
          <mxGeometry relative="1" as="geometry" />
        </mxCell>
        <mxCell id="VBo8rEwudds36ycGH-56-38" value="展示服务" style="rounded=0;whiteSpace=wrap;html=1;" parent="1" vertex="1">
          <mxGeometry x="488" y="352" width="112" height="32" as="geometry" />
        </mxCell>
        <mxCell id="VBo8rEwudds36ycGH-56-51" style="rounded=0;orthogonalLoop=1;jettySize=auto;html=1;exitX=0.5;exitY=1;exitDx=0;exitDy=0;" parent="1" source="VBo8rEwudds36ycGH-56-39" edge="1">
          <mxGeometry relative="1" as="geometry">
            <mxPoint x="353" y="505" as="targetPoint" />
          </mxGeometry>
        </mxCell>
        <mxCell id="VBo8rEwudds36ycGH-56-52" style="edgeStyle=none;rounded=0;orthogonalLoop=1;jettySize=auto;html=1;exitX=0.5;exitY=1;exitDx=0;exitDy=0;entryX=0.5;entryY=0;entryDx=0;entryDy=0;" parent="1" source="VBo8rEwudds36ycGH-56-39" target="VBo8rEwudds36ycGH-56-44" edge="1">
          <mxGeometry relative="1" as="geometry" />
        </mxCell>
        <mxCell id="VBo8rEwudds36ycGH-56-53" style="edgeStyle=none;rounded=0;orthogonalLoop=1;jettySize=auto;html=1;exitX=0.5;exitY=1;exitDx=0;exitDy=0;entryX=0.5;entryY=0;entryDx=0;entryDy=0;" parent="1" source="VBo8rEwudds36ycGH-56-39" target="VBo8rEwudds36ycGH-56-45" edge="1">
          <mxGeometry relative="1" as="geometry" />
        </mxCell>
        <mxCell id="VBo8rEwudds36ycGH-56-54" style="edgeStyle=none;rounded=0;orthogonalLoop=1;jettySize=auto;html=1;exitX=0.5;exitY=1;exitDx=0;exitDy=0;entryX=0.5;entryY=0;entryDx=0;entryDy=0;" parent="1" source="VBo8rEwudds36ycGH-56-39" target="VBo8rEwudds36ycGH-56-46" edge="1">
          <mxGeometry relative="1" as="geometry" />
        </mxCell>
        <mxCell id="VBo8rEwudds36ycGH-56-39" value="聚量引擎" style="rounded=0;whiteSpace=wrap;html=1;" parent="1" vertex="1">
          <mxGeometry x="488" y="418" width="112" height="32" as="geometry" />
        </mxCell>
        <mxCell id="VBo8rEwudds36ycGH-56-41" value="画像" style="rounded=0;whiteSpace=wrap;html=1;" parent="1" vertex="1">
          <mxGeometry x="312" y="507" width="87" height="36" as="geometry" />
        </mxCell>
        <mxCell id="VBo8rEwudds36ycGH-56-44" value="tab品类下商品召回" style="rounded=0;whiteSpace=wrap;html=1;" parent="1" vertex="1">
          <mxGeometry x="444" y="507" width="87" height="36" as="geometry" />
        </mxCell>
        <mxCell id="VBo8rEwudds36ycGH-56-45" value="算法排序" style="rounded=0;whiteSpace=wrap;html=1;" parent="1" vertex="1">
          <mxGeometry x="573" y="507" width="87" height="36" as="geometry" />
        </mxCell>
        <mxCell id="VBo8rEwudds36ycGH-56-46" value="算法排序" style="rounded=0;whiteSpace=wrap;html=1;" parent="1" vertex="1">
          <mxGeometry x="693" y="507" width="87" height="36" as="geometry" />
        </mxCell>
      </root>
    </mxGraphModel>
  </diagram>
</mxfile>
